<svg id="SvgjsSvg1131" width="100%" height="100%" xmlns="http://www.w3.org/2000/svg" version="1.1" xlink="http://www.w3.org/1999/xlink" xmlns:svgjs="http://svgjs.com/svgjs" preserveAspectRatio="xMidYMid meet" viewBox="0 -4.5916729618511454e-7 275.4433288574219 147" overflow="visible"><defs id="SvgjsDefs1132"></defs><g id="SvgjsG1133" transform="scale(0.45674281825748697)" opacity="1"><g id="SvgjsG1134" class="V1qTybEPNP" transform="translate(90.45900068759349, -87.4889288124065) scale(13.191937457025405)" light-content="false" non-strokable="false" fill="#43CAF0"><path d="M16 19.586l7.496-12.954H8.504zm-8.504-7.172L0 25.368h14.992zm17.008 0l-7.496 12.954H32z"></path></g><g id="SvgjsG1135" class="text" transform="translate(301.5299987792969, 321.00414115258786) scale(1)" light-content="false" fill="#171717"><path d="M-266.13 -21.06L-266.13 0L-257.25 0L-257.25 -42L-265.23 -42L-276.81 -22.74L-278.79 -18L-279.09 -18L-281.37 -22.62L-293.49 -42L-301.53 -42L-301.53 0L-293.13 0L-293.13 -21.12L-294.39 -29.7L-294.03 -29.7L-291.21 -23.22L-280.89 -7.5L-278.13 -7.5L-268.41 -23.16L-265.53 -29.76L-265.17 -29.76Z M-246.15 -37.2L-246.15 -4.8L-250.95 -4.8L-250.95 0L-232.47 0L-232.47 -4.8L-237.27 -4.8L-237.27 -37.2L-232.47 -37.2L-232.47 -42L-250.95 -42L-250.95 -37.2Z M-210.21 -22.08L-210.21 -16.68L-200.25 -15.72L-200.25 -8.46C-201.01 -7.94 -201.94 -7.56 -203.04 -7.32C-204.14 -7.08 -205.23 -6.96 -206.31 -6.96C-207.91 -6.96 -209.43 -7.22 -210.87 -7.74C-212.31 -8.26 -213.58 -9.09 -214.68 -10.23C-215.78 -11.37 -216.65 -12.82 -217.29 -14.58C-217.93 -16.34 -218.25 -18.46 -218.25 -20.94C-218.25 -23.5 -217.93 -25.68 -217.29 -27.48C-216.65 -29.28 -215.75 -30.74 -214.59 -31.86C-213.43 -32.98 -212.07 -33.79 -210.51 -34.29C-208.95 -34.79 -207.23 -35.04 -205.35 -35.04C-203.31 -35.04 -201.61 -34.92 -200.25 -34.68C-198.89 -34.44 -197.67 -34.14 -196.59 -33.78L-194.73 -41.16C-195.85 -41.52 -197.4 -41.89 -199.38 -42.27C-201.36 -42.65 -203.65 -42.84 -206.25 -42.84C-208.77 -42.84 -211.3 -42.45 -213.84 -41.67C-216.38 -40.89 -218.68 -39.63 -220.74 -37.89C-222.8 -36.15 -224.47 -33.89 -225.75 -31.11C-227.03 -28.33 -227.67 -24.96 -227.67 -21C-227.67 -17.2 -227.14 -13.92 -226.08 -11.16C-225.02 -8.4 -223.56 -6.13 -221.7 -4.35C-219.84 -2.57 -217.66 -1.26 -215.16 -0.42C-212.66 0.42 -209.97 0.84 -207.09 0.84C-205.85 0.84 -204.59 0.76 -203.31 0.6C-202.03 0.44 -200.78 0.19 -199.56 -0.15C-198.34 -0.49 -197.18 -0.91 -196.08 -1.41C-194.98 -1.91 -193.97 -2.52 -193.05 -3.24L-193.05 -22.08Z M-161.73 -42L-161.73 -15.66C-161.73 -12.62 -162.37 -10.43 -163.65 -9.09C-164.93 -7.75 -166.89 -7.08 -169.53 -7.08C-172.29 -7.08 -174.37 -7.71 -175.77 -8.97C-177.17 -10.23 -177.87 -12.46 -177.87 -15.66L-177.87 -42L-186.75 -42L-186.75 -14.04C-186.75 -9.12 -185.27 -5.43 -182.31 -2.97C-179.35 -0.51 -175.05 0.72 -169.41 0.72C-167.05 0.72 -164.88 0.41 -162.9 -0.21C-160.92 -0.83 -159.22 -1.78 -157.8 -3.06C-156.38 -4.34 -155.28 -5.98 -154.5 -7.98C-153.72 -9.98 -153.33 -12.34 -153.33 -15.06L-153.33 -42Z M-145.77 -42L-145.77 0L-118.41 0L-118.41 -7.8L-136.89 -7.8L-136.89 -17.28L-120.39 -17.28L-120.39 -25.08L-136.89 -25.08L-136.89 -34.2L-118.71 -34.2L-118.71 -42Z M-82.89 0L-82.89 -7.8L-102.93 -7.8L-102.93 -42L-111.81 -42L-111.81 0Z M-35.25 -1.8L-36.99 -8.88C-38.03 -8.32 -39.22 -7.86 -40.56 -7.5C-41.9 -7.14 -43.55 -6.96 -45.51 -6.96C-47.63 -6.96 -49.49 -7.3 -51.09 -7.98C-52.69 -8.66 -54.01 -9.62 -55.05 -10.86C-56.09 -12.1 -56.87 -13.58 -57.39 -15.3C-57.91 -17.02 -58.17 -18.92 -58.17 -21C-58.17 -23.36 -57.88 -25.42 -57.3 -27.18C-56.72 -28.94 -55.91 -30.4 -54.87 -31.56C-53.83 -32.72 -52.58 -33.59 -51.12 -34.17C-49.66 -34.75 -48.03 -35.04 -46.23 -35.04C-44.19 -35.04 -42.5 -34.94 -41.16 -34.74C-39.82 -34.54 -38.65 -34.22 -37.65 -33.78L-35.91 -41.22C-37.07 -41.66 -38.54 -42.04 -40.32 -42.36C-42.1 -42.68 -44.29 -42.84 -46.89 -42.84C-49.25 -42.84 -51.65 -42.46 -54.09 -41.7C-56.53 -40.94 -58.75 -39.71 -60.75 -38.01C-62.75 -36.31 -64.39 -34.07 -65.67 -31.29C-66.95 -28.51 -67.59 -25.08 -67.59 -21C-67.59 -17.08 -67.03 -13.74 -65.91 -10.98C-64.79 -8.22 -63.28 -5.96 -61.38 -4.2C-59.48 -2.44 -57.3 -1.16 -54.84 -0.36C-52.38 0.44 -49.81 0.84 -47.13 0.84C-44.85 0.84 -42.63 0.63 -40.47 0.21C-38.31 -0.21 -36.57 -0.88 -35.25 -1.8Z M-33.33 -21C-33.33 -17.76 -32.93 -14.8 -32.13 -12.12C-31.33 -9.44 -30.12 -7.14 -28.5 -5.22C-26.88 -3.3 -24.86 -1.81 -22.44 -0.75C-20.02 0.31 -17.19 0.84 -13.95 0.84C-10.95 0.84 -8.25 0.35 -5.85 -0.63C-3.45 -1.61 -1.41 -3.03 0.27 -4.89C1.95 -6.75 3.24 -9.04 4.14 -11.76C5.04 -14.48 5.49 -17.56 5.49 -21C5.49 -24.24 5.08 -27.2 4.26 -29.88C3.44 -32.56 2.22 -34.86 0.6 -36.78C-1.02 -38.7 -3.04 -40.19 -5.46 -41.25C-7.88 -42.31 -10.71 -42.84 -13.95 -42.84C-16.99 -42.84 -19.71 -42.35 -22.11 -41.37C-24.51 -40.39 -26.54 -38.97 -28.2 -37.11C-29.86 -35.25 -31.13 -32.96 -32.01 -30.24C-32.89 -27.52 -33.33 -24.44 -33.33 -21ZM-23.91 -21C-23.91 -25.88 -23.03 -29.44 -21.27 -31.68C-19.51 -33.92 -17.07 -35.04 -13.95 -35.04C-12.15 -35.04 -10.62 -34.69 -9.36 -33.99C-8.1 -33.29 -7.06 -32.31 -6.24 -31.05C-5.42 -29.79 -4.83 -28.3 -4.47 -26.58C-4.11 -24.86 -3.93 -23 -3.93 -21C-3.93 -15.96 -4.81 -12.36 -6.57 -10.2C-8.33 -8.04 -10.79 -6.96 -13.95 -6.96C-15.67 -6.96 -17.16 -7.3 -18.42 -7.98C-19.68 -8.66 -20.71 -9.62 -21.51 -10.86C-22.31 -12.1 -22.91 -13.58 -23.31 -15.3C-23.71 -17.02 -23.91 -18.92 -23.91 -21Z M31.47 -11.52C31.47 -9.92 30.78 -8.74 29.4 -7.98C28.02 -7.22 26.01 -6.84 23.37 -6.84C22.25 -6.84 21.14 -6.92 20.04 -7.08C18.94 -7.24 17.91 -7.45 16.95 -7.71C15.99 -7.97 15.12 -8.24 14.34 -8.52C13.56 -8.8 12.95 -9.06 12.51 -9.3L9.57 -1.8C10.13 -1.52 10.88 -1.23 11.82 -0.93C12.76 -0.63 13.85 -0.35 15.09 -0.09C16.33 0.17 17.68 0.39 19.14 0.57C20.6 0.75 22.15 0.84 23.79 0.84C26.23 0.84 28.47 0.58 30.51 0.06C32.55 -0.46 34.3 -1.27 35.76 -2.37C37.22 -3.47 38.35 -4.86 39.15 -6.54C39.95 -8.22 40.35 -10.22 40.35 -12.54C40.35 -14.86 39.83 -16.76 38.79 -18.24C37.75 -19.72 36.46 -20.95 34.92 -21.93C33.38 -22.91 31.71 -23.71 29.91 -24.33C28.11 -24.95 26.44 -25.57 24.9 -26.19C23.36 -26.81 22.07 -27.49 21.03 -28.23C19.99 -28.97 19.47 -29.96 19.47 -31.2C19.47 -32.44 20.02 -33.41 21.12 -34.11C22.22 -34.81 23.77 -35.16 25.77 -35.16C26.89 -35.16 27.99 -35.09 29.07 -34.95C30.15 -34.81 31.17 -34.63 32.13 -34.41C33.09 -34.19 33.94 -33.93 34.68 -33.63C35.42 -33.33 36.03 -33.04 36.51 -32.76L39.33 -40.2C37.81 -41.04 35.86 -41.69 33.48 -42.15C31.1 -42.61 28.59 -42.84 25.95 -42.84C23.67 -42.84 21.58 -42.58 19.68 -42.06C17.78 -41.54 16.16 -40.77 14.82 -39.75C13.48 -38.73 12.44 -37.43 11.7 -35.85C10.96 -34.27 10.59 -32.44 10.59 -30.36C10.59 -27.92 11.11 -25.94 12.15 -24.42C13.19 -22.9 14.48 -21.64 16.02 -20.64C17.56 -19.64 19.23 -18.84 21.03 -18.24C22.83 -17.64 24.5 -17.04 26.04 -16.44C27.58 -15.84 28.87 -15.18 29.91 -14.46C30.95 -13.74 31.47 -12.76 31.47 -11.52Z M78.63 -34.2L78.63 -42L43.11 -42L43.11 -34.2L56.43 -34.2L56.43 0L65.31 0L65.31 -34.2Z M100.65 -8.94L104.25 0L113.67 0L97.17 -42.3L90.63 -42.3L74.19 0L83.07 0L86.49 -8.94ZM88.95 -15.96L92.13 -24.66L93.57 -31.38L93.87 -31.38L95.31 -24.72L98.55 -15.96Z M152.97 -21.06L152.97 0L161.85 0L161.85 -42L153.87 -42L142.29 -22.74L140.31 -18L140.01 -18L137.73 -22.62L125.61 -42L117.57 -42L117.57 0L125.97 0L125.97 -21.12L124.71 -29.7L125.07 -29.7L127.89 -23.22L138.21 -7.5L140.97 -7.5L150.69 -23.16L153.57 -29.76L153.93 -29.76Z M172.95 -37.2L172.95 -4.8L168.15 -4.8L168.15 0L186.63 0L186.63 -4.8L181.83 -4.8L181.83 -37.2L186.63 -37.2L186.63 -42L168.15 -42L168.15 -37.2Z M221.85 0L221.85 -7.8L201.81 -7.8L201.81 -42L192.93 -42L192.93 0Z M249.63 -8.94L253.23 0L262.65 0L246.15 -42.3L239.61 -42.3L223.17 0L232.05 0L235.47 -8.94ZM237.93 -15.96L241.11 -24.66L242.55 -31.38L242.85 -31.38L244.29 -24.72L247.53 -15.96Z M277.89 -21.9L295.11 0.3L301.53 0.3L301.53 -42L293.13 -42L293.13 -19.98L294.09 -13.8L293.73 -13.8L290.31 -19.92L272.97 -42.3L266.55 -42.3L266.55 0L274.95 0L274.95 -21.84L273.99 -28.2L274.29 -28.2Z"></path></g></g></svg>